<svg xmlns="http://www.w3.org/2000/svg" viewBox="0 0 20 20" width="20" height="20" fill="currentColor">
  <path d="M3 3.5A1.5 1.5 0 0 1 4.5 2h11A1.5 1.5 0 0 1 17 3.5v13a1.5 1.5 0 0 1-1.5 1.5h-11A1.5 1.5 0 0 1 3 16.5v-13zm2 1.25a.75.75 0 0 0-.75.75v3a.75.75 0 0 0 .75.75h4a.75.75 0 0 0 .75-.75v-3A.75.75 0 0 0 9 4.75H5zm6 0a.75.75 0 0 0-.75.75v3a.75.75 0 0 0 .75.75h4a.75.75 0 0 0 .75-.75v-3A.75.75 0 0 0 15 4.75h-4zM5 11a.75.75 0 0 0 0 1.5h10A.75.75 0 0 0 15 11H5zm0 3a.75.75 0 0 0 0 1.5h7A.75.75 0 0 0 12 14H5z"/>
</svg>
