<svg xmlns="http://www.w3.org/2000/svg" viewBox="0 0 240 180" width="240" height="180">
  <rect width="240" height="180" fill="#ffffff" stroke="#d1d5db" stroke-width="1" rx="8"/>
  <!-- row 1 -->
  <rect x="20" y="30" width="60" height="7" rx="2" fill="#374151"/>
  <rect x="100" y="31" width="110" height="6" rx="2" fill="#9ca3af"/>
  <line x1="20" y1="48" x2="220" y2="48" stroke="#e5e7eb" stroke-width="1"/>
  <!-- row 2 -->
  <rect x="20" y="60" width="60" height="7" rx="2" fill="#374151"/>
  <rect x="100" y="61" width="90" height="6" rx="2" fill="#9ca3af"/>
  <line x1="20" y1="78" x2="220" y2="78" stroke="#e5e7eb" stroke-width="1"/>
  <!-- row 3 -->
  <rect x="20" y="90" width="60" height="7" rx="2" fill="#374151"/>
  <rect x="100" y="91" width="100" height="6" rx="2" fill="#9ca3af"/>
  <line x1="20" y1="108" x2="220" y2="108" stroke="#e5e7eb" stroke-width="1"/>
  <!-- row 4 -->
  <rect x="20" y="120" width="60" height="7" rx="2" fill="#374151"/>
  <rect x="100" y="121" width="80" height="6" rx="2" fill="#9ca3af"/>
  <line x1="20" y1="138" x2="220" y2="138" stroke="#e5e7eb" stroke-width="1"/>
  <!-- row 5 -->
  <rect x="20" y="150" width="60" height="7" rx="2" fill="#374151"/>
  <rect x="100" y="151" width="70" height="6" rx="2" fill="#9ca3af"/>
</svg>
