<svg xmlns="http://www.w3.org/2000/svg" viewBox="0 0 240 180" width="240" height="180">
  <rect width="240" height="180" fill="#ffffff" stroke="#d1d5db" stroke-width="1" rx="8"/>
  <!-- intro paragraph -->
  <rect x="20" y="20" width="200" height="6" rx="3" fill="#9ca3af"/>
  <rect x="20" y="32" width="180" height="6" rx="3" fill="#9ca3af"/>
  <rect x="20" y="44" width="160" height="6" rx="3" fill="#9ca3af"/>
  <!-- spec table -->
  <line x1="20" y1="68" x2="220" y2="68" stroke="#e5e7eb" stroke-width="1"/>
  <rect x="20" y="76" width="60" height="6" rx="2" fill="#ec4899"/>
  <rect x="100" y="76" width="100" height="6" rx="2" fill="#9ca3af"/>
  <line x1="20" y1="92" x2="220" y2="92" stroke="#e5e7eb" stroke-width="1"/>
  <rect x="20" y="100" width="60" height="6" rx="2" fill="#ec4899"/>
  <rect x="100" y="100" width="80" height="6" rx="2" fill="#9ca3af"/>
  <line x1="20" y1="116" x2="220" y2="116" stroke="#e5e7eb" stroke-width="1"/>
  <rect x="20" y="124" width="60" height="6" rx="2" fill="#ec4899"/>
  <rect x="100" y="124" width="90" height="6" rx="2" fill="#9ca3af"/>
  <line x1="20" y1="140" x2="220" y2="140" stroke="#e5e7eb" stroke-width="1"/>
  <rect x="20" y="148" width="60" height="6" rx="2" fill="#ec4899"/>
  <rect x="100" y="148" width="70" height="6" rx="2" fill="#9ca3af"/>
</svg>
