<svg xmlns="http://www.w3.org/2000/svg" viewBox="0 0 240 180" width="240" height="180">
  <rect width="240" height="180" fill="#ffffff" stroke="#d1d5db" stroke-width="1" rx="8"/>
  <!-- story paragraph -->
  <rect x="20" y="20" width="200" height="6" rx="3" fill="#9ca3af"/>
  <rect x="20" y="32" width="200" height="6" rx="3" fill="#9ca3af"/>
  <rect x="20" y="44" width="170" height="6" rx="3" fill="#9ca3af"/>
  <rect x="20" y="56" width="190" height="6" rx="3" fill="#9ca3af"/>
  <!-- heading -->
  <rect x="20" y="80" width="100" height="8" rx="3" fill="#ec4899"/>
  <!-- bullet list -->
  <circle cx="26" cy="104" r="3" fill="#ec4899"/>
  <rect x="36" y="101" width="160" height="6" rx="3" fill="#9ca3af"/>
  <circle cx="26" cy="124" r="3" fill="#ec4899"/>
  <rect x="36" y="121" width="140" height="6" rx="3" fill="#9ca3af"/>
  <circle cx="26" cy="144" r="3" fill="#ec4899"/>
  <rect x="36" y="141" width="170" height="6" rx="3" fill="#9ca3af"/>
  <circle cx="26" cy="164" r="3" fill="#ec4899"/>
  <rect x="36" y="161" width="120" height="6" rx="3" fill="#9ca3af"/>
</svg>
