<svg xmlns="http://www.w3.org/2000/svg" viewBox="0 0 240 180" width="240" height="180">
  <rect width="240" height="180" fill="#ffffff" stroke="#d1d5db" stroke-width="1" rx="8"/>
  <!-- dividers -->
  <line x1="86" y1="20" x2="86" y2="160" stroke="#e5e7eb" stroke-width="1" stroke-dasharray="3,3"/>
  <line x1="154" y1="20" x2="154" y2="160" stroke="#e5e7eb" stroke-width="1" stroke-dasharray="3,3"/>
  <!-- col 1 heading -->
  <rect x="20" y="24" width="50" height="8" rx="3" fill="#ec4899"/>
  <!-- col 1 text -->
  <rect x="20" y="44" width="56" height="5" rx="2" fill="#9ca3af"/>
  <rect x="20" y="56" width="56" height="5" rx="2" fill="#9ca3af"/>
  <rect x="20" y="68" width="48" height="5" rx="2" fill="#9ca3af"/>
  <rect x="20" y="80" width="56" height="5" rx="2" fill="#9ca3af"/>
  <rect x="20" y="92" width="40" height="5" rx="2" fill="#9ca3af"/>
  <!-- col 2 heading -->
  <rect x="96" y="24" width="50" height="8" rx="3" fill="#ec4899"/>
  <!-- col 2 text -->
  <rect x="96" y="44" width="50" height="5" rx="2" fill="#9ca3af"/>
  <rect x="96" y="56" width="50" height="5" rx="2" fill="#9ca3af"/>
  <rect x="96" y="68" width="44" height="5" rx="2" fill="#9ca3af"/>
  <rect x="96" y="80" width="50" height="5" rx="2" fill="#9ca3af"/>
  <rect x="96" y="92" width="36" height="5" rx="2" fill="#9ca3af"/>
  <!-- col 3 heading -->
  <rect x="164" y="24" width="50" height="8" rx="3" fill="#ec4899"/>
  <!-- col 3 text -->
  <rect x="164" y="44" width="56" height="5" rx="2" fill="#9ca3af"/>
  <rect x="164" y="56" width="56" height="5" rx="2" fill="#9ca3af"/>
  <rect x="164" y="68" width="48" height="5" rx="2" fill="#9ca3af"/>
  <rect x="164" y="80" width="56" height="5" rx="2" fill="#9ca3af"/>
  <rect x="164" y="92" width="42" height="5" rx="2" fill="#9ca3af"/>
</svg>
