<svg xmlns="http://www.w3.org/2000/svg" viewBox="0 0 240 180" width="240" height="180">
  <rect width="240" height="180" fill="#ffffff" stroke="#d1d5db" stroke-width="1" rx="8"/>
  <!-- divider -->
  <line x1="120" y1="20" x2="120" y2="160" stroke="#e5e7eb" stroke-width="1" stroke-dasharray="3,3"/>
  <!-- left column heading -->
  <rect x="20" y="24" width="60" height="8" rx="3" fill="#ec4899"/>
  <!-- left column text -->
  <rect x="20" y="44" width="90" height="5" rx="2" fill="#9ca3af"/>
  <rect x="20" y="56" width="90" height="5" rx="2" fill="#9ca3af"/>
  <rect x="20" y="68" width="80" height="5" rx="2" fill="#9ca3af"/>
  <rect x="20" y="80" width="90" height="5" rx="2" fill="#9ca3af"/>
  <rect x="20" y="92" width="70" height="5" rx="2" fill="#9ca3af"/>
  <rect x="20" y="104" width="90" height="5" rx="2" fill="#9ca3af"/>
  <rect x="20" y="116" width="60" height="5" rx="2" fill="#9ca3af"/>
  <!-- right column heading -->
  <rect x="130" y="24" width="60" height="8" rx="3" fill="#ec4899"/>
  <!-- right column text -->
  <rect x="130" y="44" width="90" height="5" rx="2" fill="#9ca3af"/>
  <rect x="130" y="56" width="90" height="5" rx="2" fill="#9ca3af"/>
  <rect x="130" y="68" width="80" height="5" rx="2" fill="#9ca3af"/>
  <rect x="130" y="80" width="90" height="5" rx="2" fill="#9ca3af"/>
  <rect x="130" y="92" width="70" height="5" rx="2" fill="#9ca3af"/>
  <rect x="130" y="104" width="90" height="5" rx="2" fill="#9ca3af"/>
  <rect x="130" y="116" width="50" height="5" rx="2" fill="#9ca3af"/>
</svg>
